<?xml version="1.0" encoding="iso-8859-1"?>
<!-- Generator: Adobe Illustrator 21.0.0, SVG Export Plug-In . SVG Version: 6.00 Build 0)  -->
<svg version="1.1" id="Capa_1" xmlns="http://www.w3.org/2000/svg" xmlns:xlink="http://www.w3.org/1999/xlink" x="0px" y="0px"
	 viewBox="0 0 225.508 83.153" style="enable-background:new 0 0 225.508 83.153;" xml:space="preserve">
<g>
	<path d="M107.823,37.779c-0.54,0.291-0.778,0.842-1.093,1.316c-0.094,0.142-0.154,0.289-0.308,0.385
		c-0.306,0.191-0.398,0.555-0.609,0.825c-0.373,0.476-0.84,0.858-1.204,1.353c-0.418,0.57-0.805,1.236-1.495,1.57
		c-0.187,0.09-0.195,0.29-0.279,0.431c-0.337,0.571-0.915,0.893-1.34,1.368c-0.392,0.439-0.83,0.828-1.187,1.31
		c-0.273,0.368-0.732,0.598-1.069,0.949c-0.705,0.732-1.444,1.435-2.147,2.166c-0.46,0.479-1.041,0.7-1.553,1.056
		c-0.184,0.128-0.469,0.139-0.642,0.03c-0.368-0.231-0.794-0.271-1.174-0.443c-0.41-0.186-0.569-0.624-0.693-0.971
		c-0.135-0.38-0.352-0.665-0.6-0.925c-0.371-0.389-0.341-0.863-0.173-1.233c0.181-0.398,0.253-0.811,0.343-1.211
		c0.202-0.9,0.626-1.719,1.112-2.444c0.517-0.771,0.928-1.623,1.562-2.318c0.218-0.239,0.251-0.589,0.459-0.848
		c0.611-0.765,1.224-1.529,1.795-2.323c0.44-0.612,0.945-1.164,1.444-1.724c0.071-0.08,0.159-0.153,0.096-0.265
		c-0.062-0.112-0.188-0.078-0.283-0.066c-0.739,0.094-1.5,0.013-2.218,0.282c-0.094,0.035-0.205,0.041-0.307,0.036
		c-0.686-0.032-1.291,0.313-1.95,0.41c-0.432,0.063-0.859,0.166-1.291,0.228c-0.795,0.113-1.555,0.349-2.297,0.646
		c-0.189,0.076-0.288,0.249-0.268,0.465c0.065,0.729-0.201,1.364-0.552,1.977c-0.115,0.202-0.198,0.472-0.202,0.654
		c-0.02,1.049-0.832,1.7-1.204,2.565c-0.264,0.613-0.544,1.227-0.893,1.795c-0.366,0.597-0.587,1.285-1.108,1.788
		c-0.292,0.282-0.439,0.679-0.744,0.955c-0.73,0.662-1.281,1.485-1.981,2.187c-0.781,0.783-1.723,1.384-2.423,2.259
		c-0.417,0.522-1.078,0.795-1.66,1.139c-0.389,0.23-0.823,0.265-1.23,0.407c-0.384,0.135-0.762-0.033-1.003-0.299
		c-0.161-0.177-0.326-0.265-0.522-0.357c-0.366-0.172-0.736-0.342-1.084-0.548c-0.363-0.215-0.554-0.59-0.696-0.964
		c-0.075-0.197-0.14-0.397-0.29-0.528c-0.849-0.736-0.798-1.669-0.587-2.631c0.064-0.294,0.079-0.578,0.049-0.974
		c-0.456,0.452-1,0.673-1.362,1.126c-0.074,0.092-0.158,0.109-0.242,0.159c-0.501,0.3-0.979,0.608-1.395,1.049
		c-0.461,0.489-1.061,0.851-1.611,1.254c-0.836,0.613-1.661,1.247-2.503,1.846c-0.594,0.423-1.193,0.859-1.779,1.292
		c-0.446,0.329-0.932,0.562-1.407,0.772c-0.767,0.339-1.585,0.598-2.473,0.328c-0.459-0.139-0.93-0.184-1.306-0.544
		c-0.421-0.404-0.676-0.899-0.899-1.418c-0.21-0.489-0.275-1.032-0.565-1.496c-0.07-0.113-0.057-0.286-0.059-0.432
		c-0.006-0.6-0.002-1.199-0.002-1.912c-0.754,0.553-1.521,0.84-2.204,1.301c-0.603,0.407-1.201,0.832-1.847,1.188
		c-0.358,0.197-0.717,0.471-1.052,0.737c-0.559,0.444-1.178,0.773-1.804,1.103c-0.524,0.277-1.045,0.566-1.554,0.863
		c-0.609,0.355-1.266,0.496-1.914,0.699c-0.352,0.11-0.708,0.177-1.078,0.203c-0.282,0.02-0.512,0.206-0.666,0.44
		c-0.382,0.581-0.658,1.238-1.028,1.808c-0.505,0.777-0.721,1.673-1.233,2.438c-0.403,0.604-0.877,1.216-1.121,1.864
		c-0.3,0.798-0.824,1.435-1.183,2.179c-0.338,0.7-0.771,1.363-1.197,2.022c-0.229,0.354-0.324,0.797-0.701,1.107
		c0.221,0.139,0.44,0.099,0.619,0.051c0.781-0.211,1.595-0.208,2.371-0.374c0.613-0.131,1.226-0.207,1.841-0.297
		c0.595-0.088,1.175-0.27,1.785-0.262c0.249,0.003,0.49-0.015,0.708-0.192c0.1-0.081,0.28-0.079,0.425-0.085
		c1.222-0.052,2.411-0.328,3.614-0.513c0.805-0.124,1.606-0.344,2.413-0.373c0.759-0.027,1.493-0.161,2.227-0.291
		c1.152-0.204,2.313-0.32,3.47-0.471c0.721-0.094,1.461-0.18,2.159-0.356c1.059-0.266,2.128-0.306,3.195-0.441
		c0.541-0.068,1.124-0.019,1.61-0.187c0.487-0.169,0.976-0.134,1.441-0.272c0.249-0.074,0.489-0.091,0.736-0.109
		c1.362-0.102,2.732-0.217,4.073-0.428c1.051-0.165,2.105-0.263,3.152-0.422c0.526-0.08,1.061-0.061,1.57-0.173
		c1.466-0.323,2.954-0.342,4.44-0.447c1.095-0.078,2.207-0.159,3.282-0.361c1.392-0.262,2.795-0.278,4.185-0.445
		c0.874-0.105,1.758-0.062,2.631-0.254c0.623-0.137,1.295-0.074,1.945-0.063c0.869,0.015,1.689-0.325,2.565-0.303
		c0.339,0.008,0.71-0.059,1.063-0.086c0.736-0.056,1.482,0.005,2.214-0.072c1.014-0.107,2.062-0.007,3.035-0.212
		c0.939-0.198,1.868-0.087,2.781-0.241c0.809-0.137,1.627-0.048,2.418-0.175c1.002-0.162,2.012-0.033,2.995-0.179
		c0.912-0.135,1.857,0.033,2.715-0.2c0.943-0.255,1.886-0.048,2.789-0.248c0.888-0.197,1.783-0.08,2.672-0.263
		c0.767-0.158,1.59-0.042,2.389-0.051c0.306-0.003,0.62,0.044,0.882-0.195c0.066-0.06,0.196-0.074,0.295-0.068
		c1.272,0.07,2.53-0.138,3.79-0.229c0.785-0.057,1.591-0.022,2.366-0.23c0.238-0.064,0.449,0.098,0.692,0.09
		c0.884-0.031,1.795-0.054,2.635-0.235c0.928-0.2,1.845-0.075,2.749-0.225c1.014-0.168,2.04-0.047,3.042-0.184
		c0.929-0.127,1.891,0.026,2.771-0.197c1.071-0.271,2.131-0.138,3.191-0.236c0.637-0.059,1.27-0.153,1.916-0.159
		c2.036-0.022,4.069-0.155,6.102-0.234c1.265-0.049,2.549,0.043,3.795-0.142c3.113-0.463,6.24-0.08,9.351-0.284
		c0.696-0.046,1.404-0.098,2.083-0.057c0.75,0.045,1.5,0.063,2.25,0.084c0.352,0.01,0.711,0.045,1.05-0.102
		c0.039-0.017,0.092-0.027,0.131-0.015c0.699,0.225,1.388-0.122,2.086-0.034c0.561,0.071,1.13,0.007,1.688,0.036
		c3.411,0.18,6.824,0.113,10.235,0.141c0.591,0.005,1.183,0.012,1.774,0.018c0.235,0.003,0.472-0.025,0.67,0.16
		c0.055,0.051,0.174,0.074,0.25,0.055c0.798-0.194,1.588,0.076,2.388,0.036c0.805-0.041,1.616-0.007,2.429,0.065
		c1.316,0.117,2.646,0.054,3.968,0.114c1.665,0.076,3.332,0.126,4.993,0.231c0.793,0.05,1.6,0.008,2.379,0.14
		c1.305,0.221,2.632,0.16,3.932,0.383c0.101,0.017,0.207,0.02,0.31,0.014c1.214-0.08,2.421,0.089,3.61,0.245
		c1.32,0.174,2.643,0.291,3.965,0.434c1.064,0.114,2.125,0.258,3.192,0.347c0.396,0.033,0.774,0.2,1.168,0.283
		c0.468,0.099,0.965,0.071,1.417,0.282c0.159,0.074,0.311,0.114,0.437,0.259c0.421,0.484,0.863,0.949,1.294,1.425
		c0.279,0.308,0.666,0.405,1.032,0.543c0.11,0.041,0.275,0.045,0.264,0.187c-0.041,0.568,0.485,0.627,0.776,0.895
		c0.166,0.153,0.572,0.118,0.469,0.468c-0.088,0.3-0.427,0.266-0.688,0.348c-1.063,0.338-2.076-0.152-3.112-0.133
		c-0.637,0.011-1.167-0.325-1.783-0.389c-0.459-0.047-0.938-0.136-1.396-0.176c-0.691-0.061-1.335-0.301-2.024-0.373
		c-1.048-0.111-2.098-0.226-3.143-0.363c-0.638-0.084-1.272-0.075-1.906-0.135c-0.231-0.022-0.48,0.022-0.648-0.206
		c-0.022-0.03-0.082-0.053-0.12-0.047c-0.693,0.106-1.341-0.241-2.051-0.166c-0.466,0.049-0.981-0.047-1.476-0.143
		c-0.431-0.084-0.931,0.012-1.368-0.084c-0.889-0.195-1.783-0.114-2.673-0.181c-0.256-0.019-0.482-0.343-0.778-0.042
		c-0.08,0.082-0.181-0.183-0.273-0.167c-0.437,0.075-0.851-0.163-1.245-0.138c-0.842,0.054-1.655-0.121-2.482-0.159
		c-0.086-0.004-0.171-0.071-0.254-0.065c-1.041,0.082-2.114,0.086-3.109-0.1c-1.733-0.323-3.459-0.068-5.177-0.228
		c-1.643-0.153-3.295-0.069-4.932-0.2c-1.432-0.114-2.861-0.072-4.288-0.149c-0.659-0.035-1.322-0.016-1.973-0.042
		c-0.893-0.037-1.788-0.094-2.684-0.095c-1.523-0.002-3.045-0.004-4.568-0.012c-0.227-0.001-0.476,0.074-0.651-0.168
		c-0.068-0.095-0.158-0.04-0.226,0.027c-0.1,0.098-0.224,0.181-0.357,0.135c-0.636-0.219-1.261,0.092-1.894,0.025
		c-0.662-0.07-1.332-0.062-1.992-0.002c-1.038,0.095-2.07-0.061-3.112,0.016c-0.699,0.052-1.417,0.137-2.14,0.014
		c-0.283-0.048-0.68,0.146-0.959,0.082c-0.725-0.166-1.415,0.101-2.124,0.046c-0.602-0.047-1.215-0.054-1.816,0.004
		c-1.421,0.139-2.847,0.165-4.27,0.227c-1.201,0.052-2.401,0.205-3.607,0.131c-0.179-0.011-0.352-0.004-0.491,0.144
		c-0.074,0.079-0.193,0.107-0.29,0.065c-0.691-0.3-1.336,0.158-2.012,0.12c-0.134-0.008-0.285,0.086-0.426,0.015
		c-0.197-0.1-0.405-0.097-0.608-0.074c-1.072,0.12-2.148,0.175-3.225,0.208c-0.694,0.021-1.385,0.111-2.074,0.169
		c-0.352,0.03-0.738-0.069-1.104,0.119c-0.132,0.068-0.406-0.249-0.631-0.06c-0.18,0.151-0.38,0.147-0.583,0.159
		c-0.207,0.012-0.414,0.012-0.621,0.017c-0.881,0.021-1.763-0.026-2.64,0.158c-0.367,0.077-0.776-0.055-1.146,0.013
		c-0.873,0.16-1.758,0.201-2.633,0.211c-0.452,0.005-0.947,0.005-1.368,0.052c-0.638,0.07-1.302-0.047-1.948,0.212
		c-0.301,0.121-0.716,0.17-1.108,0.141c-1.119-0.083-2.234,0.101-3.341,0.221c-0.735,0.08-1.469,0.071-2.194,0.159
		c-0.366,0.045-0.761,0.153-1.096,0.088c-0.554-0.107-1.056,0.116-1.589,0.092c-0.429-0.019-0.877-0.083-1.284,0.191
		c-0.127,0.086-0.377,0.102-0.517,0.036c-0.377-0.179-0.725,0.002-1.084,0.018c-0.393,0.017-0.8-0.082-1.175,0.126
		c-0.048,0.026-0.117,0.025-0.175,0.02c-1.34-0.107-2.653,0.266-3.991,0.218c-0.369-0.013-0.756-0.219-1.109,0.008
		c-0.583,0.375-1.224,0.188-1.841,0.232c-1.262,0.089-2.524,0.175-3.786,0.262c-0.058,0.004-0.116-0.002-0.174-0.006
		c-0.452-0.037-0.883-0.065-1.344,0.092c-0.488,0.166-1.029-0.048-1.557,0.034c-0.68,0.105-1.369,0.165-2.058,0.215
		c-0.399,0.029-0.777,0.345-1.2,0.061c-0.636,0.382-1.383,0.037-2.037,0.308c-0.052,0.022-0.117,0.02-0.176,0.019
		c-1.372-0.018-2.728,0.258-4.102,0.209c-0.18-0.006-0.352-0.018-0.475,0.159c-0.064,0.091-0.186,0.089-0.287,0.087
		c-0.708-0.016-1.415,0.147-2.109,0.128c-1.216-0.033-2.392,0.293-3.605,0.278c-0.478-0.006-0.981,0.122-1.481,0.115
		c-0.143-0.002-0.298,0.01-0.402,0.146c-0.096,0.126-0.267,0.147-0.362,0.088c-0.288-0.18-0.534,0.013-0.791,0.019
		c-0.74,0.016-1.467,0.167-2.183,0.268c-0.709,0.1-1.479-0.072-2.144,0.328c-0.023,0.014-0.058,0.016-0.087,0.014
		c-0.975-0.041-1.917,0.252-2.897,0.255c-0.607,0.002-1.257,0.049-1.859,0.26c-0.028,0.01-0.057,0.019-0.086,0.022
		c-0.592,0.064-1.18,0.136-1.769,0.234c-0.993,0.166-2.012,0.198-3.007,0.399c-0.2,0.04-0.412,0.028-0.619,0.031
		c-0.247,0.004-0.502-0.056-0.696,0.18c-0.046,0.055-0.165,0.073-0.249,0.07c-0.724-0.019-1.437,0.126-2.143,0.226
		c-0.823,0.116-1.68,0.046-2.471,0.322c-0.896,0.313-1.84,0.268-2.746,0.462c-0.525,0.112-1.049,0.14-1.578,0.17
		c-0.303,0.017-0.545,0.22-0.856,0.279c-0.683,0.128-1.375,0.077-2.045,0.185c-0.75,0.122-1.524,0.155-2.247,0.348
		c-0.936,0.249-1.874,0.35-2.828,0.443c-0.479,0.047-0.958,0.132-1.442,0.181c-0.272,0.028-0.522,0.199-0.812,0.265
		c-0.633,0.144-1.28,0.126-1.915,0.265c-0.533,0.117-1.1,0.154-1.653,0.209c-0.417,0.042-0.819,0.076-1.238,0.189
		c-0.48,0.129-1.027,0.15-1.538,0.224c-0.503,0.073-1.032-0.059-1.512,0.181c-0.013,0.007-0.028,0.017-0.041,0.016
		c-0.657-0.072-1.233,0.313-1.888,0.321c-0.55,0.006-1.098,0.166-1.646,0.258c-0.102,0.017-0.204,0.061-0.304,0.054
		c-0.788-0.053-1.554,0.156-2.325,0.246c-0.442,0.052-0.9,0.181-1.348,0.283c-0.261,0.06-0.517,0.088-0.778,0.115
		c-0.621,0.066-1.238,0.119-1.826,0.381c-0.362,0.162-0.785,0.071-1.181,0.135c-0.835,0.135-1.669,0.29-2.505,0.405
		c-1.098,0.151-2.165,0.473-3.285,0.515c-0.52,0.02-1.074,0.065-1.566,0.203c-1.508,0.422-3.047,0.484-4.587,0.618
		c-0.537,0.047-1.1,0.052-1.613,0.177c-1.218,0.298-2.462,0.273-3.685,0.44c-1.49,0.203-2.977,0.166-4.462,0.11
		c-0.617-0.023-1.243-0.174-1.834-0.496c-0.437-0.238-0.928-0.52-1.495-0.447c-0.251,0.032-0.51,0.004-0.712-0.175
		c-0.141-0.125-0.301-0.289-0.227-0.481c0.073-0.19,0.161-0.389,0.423-0.462c0.539-0.149,1.066-0.228,1.634-0.17
		c1.389,0.141,2.76-0.196,4.147-0.222c0.454-0.009,0.982-0.001,1.387-0.174c0.845-0.362,1.752-0.283,2.604-0.524
		c0.111-0.031,0.234-0.022,0.352-0.032c0.316-0.026,0.654,0.046,0.914-0.225c0.042-0.044,0.14-0.045,0.212-0.047
		c1.015-0.031,2.002-0.289,3.004-0.416c0.447-0.057,0.982,0.016,1.376-0.345c0.038-0.035,0.112-0.041,0.169-0.041
		c0.992,0.006,1.965-0.212,2.917-0.417c0.532-0.114,1.09-0.136,1.61-0.324c0.149-0.054,0.319-0.061,0.48-0.064
		c0.96-0.018,1.897-0.247,2.829-0.418c0.787-0.144,1.58-0.256,2.36-0.416c0.559-0.115,1.189,0.026,1.689-0.372
		c0.049-0.039,0.143-0.027,0.217-0.029c1.164-0.028,2.295-0.33,3.458-0.4c0.777-0.047,1.523-0.388,2.313-0.407
		c0.444-0.011,0.877-0.067,1.31-0.157c0.202-0.042,0.331-0.149,0.373-0.326c0.225-0.958,0.679-1.838,0.946-2.775
		c0.181-0.635,0.46-1.239,0.741-1.801c0.525-1.049,0.813-2.197,1.398-3.205c0.38-0.654,0.658-1.354,1.014-2.017
		c0.408-0.76,0.765-1.556,1.157-2.328c0.296-0.584,0.543-1.193,0.886-1.756c0.224-0.368,0.374-0.792,0.578-1.167
		c0.205-0.377,0.407-0.766,0.639-1.129c0.225-0.352,0.429-0.704,0.607-1.086c0.242-0.518,0.56-1.01,0.909-1.464
		c0.165-0.214,0.221-0.482,0.385-0.663c0.533-0.586,0.672-1.411,1.235-1.97c0.124-0.123,0.115-0.296,0.18-0.441
		c0.442-0.99,1.126-1.845,1.571-2.83c0.409-0.904,1.005-1.702,1.441-2.594c0.216-0.441,0.489-0.892,0.862-1.242
		c0.151-0.142,0.189-0.34,0.247-0.499c0.296-0.812,0.803-1.494,1.237-2.223c0.155-0.261,0.362-0.522,0.433-0.85
		c0.043-0.198,0.167-0.387,0.357-0.531c0.131-0.099,0.318-0.242,0.18-0.503c-0.282,0.151-0.59,0.181-0.894,0.145
		c-0.358-0.043-0.574,0.248-0.884,0.327c-0.576,0.147-1.147,0.33-1.712,0.506c-0.674,0.21-1.395,0.309-2.012,0.756
		c-0.322,0.233-0.806,0.309-1.221,0.428c-1.078,0.308-1.857,0.966-2.552,1.824c-0.401,0.495-0.852,0.961-1.221,1.482
		c-0.244,0.344-0.502,0.662-0.82,0.93c-0.317,0.267-0.507,0.623-0.745,0.949c-0.292,0.4-0.661,0.743-0.972,1.132
		c-0.312,0.39-0.677,0.729-0.964,1.15c-0.313,0.46-0.755,0.838-1.174,1.215c-0.109,0.098-0.227,0.193-0.29,0.313
		c-0.41,0.78-1.075,1.289-1.773,1.788c-0.355,0.254-0.681,0.596-0.911,0.965c-0.36,0.576-0.891,0.982-1.319,1.488
		c-0.396,0.467-0.93,0.802-1.235,1.367c-0.154,0.286-0.467,0.47-0.7,0.708c-0.718,0.734-1.462,1.446-2.2,2.158
		c-0.312,0.302-0.558,0.686-0.978,0.937c-0.406,0.242-0.716,0.727-1.082,1.077c-0.416,0.397-0.823,0.805-1.236,1.205
		c-0.538,0.52-1.081,1.044-1.647,1.523c-0.626,0.53-1.049,1.24-1.705,1.727c-0.141,0.104-0.259,0.246-0.288,0.431
		c-0.023,0.143-0.111,0.259-0.214,0.326c-0.468,0.301-0.736,0.76-1.011,1.217c-0.059,0.099-0.127,0.203-0.217,0.271
		c-0.413,0.31-0.812,0.653-1.262,0.898c-0.449,0.244-0.975,0.102-1.342-0.159c-0.294-0.21-0.615-0.418-0.882-0.688
		c-0.407-0.411-0.536-0.893-0.614-1.446c-0.089-0.629-0.098-1.226,0.195-1.794c0.282-0.548,0.452-1.157,0.885-1.622
		c0.05-0.053,0.108-0.108,0.134-0.173c0.313-0.779,0.986-1.303,1.413-1.996c0.443-0.718,1.088-1.269,1.546-1.973
		c0.219-0.337,0.578-0.558,0.853-0.856c0.229-0.248,0.397-0.53,0.595-0.791c0.425-0.56,0.935-1.039,1.402-1.558
		c0.413-0.459,0.827-0.917,1.292-1.324c0.255-0.223,0.392-0.535,0.611-0.791c0.522-0.609,1.147-1.114,1.645-1.754
		c0.291-0.374,0.731-0.68,1.085-1.04c0.401-0.407,0.864-0.741,1.208-1.217c0.339-0.468,0.865-0.763,1.3-1.144
		c0.29-0.254,0.598-0.484,0.862-0.772c0.176-0.193,0.396-0.363,0.626-0.485c0.321-0.169,0.543-0.417,0.752-0.727
		c-0.272-0.115-0.515,0.086-0.626,0.189c-0.55,0.51-1.291,0.573-1.918,0.896c-1.033,0.531-2.144,0.91-3.174,1.447
		c-0.879,0.458-1.815,0.793-2.674,1.271c-0.707,0.393-1.438,0.732-2.153,1.102c-0.333,0.172-0.737,0.206-1.071,0.377
		c-0.801,0.41-1.64,0.737-2.449,1.134c-1.148,0.564-2.238,1.249-3.464,1.662c-0.45,0.152-0.858,0.467-1.244,0.762
		c-0.416,0.317-0.949,0.41-1.338,0.77c-0.432,0.4-0.987,0.626-1.484,0.917c-0.566,0.332-1.117,0.704-1.706,1.007
		c-0.415,0.214-0.775,0.545-1.191,0.788c-0.852,0.499-1.695,1.021-2.507,1.582c-0.585,0.404-1.173,0.806-1.719,1.275
		c-0.425,0.365-0.824,0.752-1.231,1.133c-0.138,0.129-0.283,0.329-0.54,0.146c0.496-0.581,1.04-1.101,1.598-1.618
		c0.618-0.574,1.263-1.12,1.886-1.687c0.496-0.451,1.101-0.8,1.592-1.263c0.332-0.314,0.824-0.435,1.034-0.887
		c0.102-0.218,0.398-0.128,0.523-0.293c0.431-0.567,1.132-0.762,1.651-1.219c0.458-0.404,1.007-0.712,1.544-1.013
		c0.158-0.089,0.266-0.203,0.39-0.314c0.387-0.348,0.889-0.507,1.309-0.802c0.39-0.274,0.731-0.618,1.191-0.794
		c0.667-0.255,1.281-0.643,1.86-1.032c0.765-0.513,1.622-0.845,2.371-1.366c0.515-0.359,1.105-0.543,1.655-0.818
		c0.241-0.121,0.461-0.285,0.694-0.423c0.587-0.346,1.198-0.641,1.814-0.932c1.068-0.506,2.144-0.993,3.214-1.493
		c0.576-0.269,1.2-0.449,1.722-0.837c0.273-0.203,0.629-0.229,0.942-0.342c0.627-0.226,1.183-0.617,1.826-0.78
		c0.66-0.168,1.192-0.643,1.896-0.713c0.337-0.033,0.61-0.31,0.925-0.456c0.762-0.353,1.562-0.593,2.334-0.913
		c0.674-0.279,1.378-0.496,2.031-0.817c0.567-0.278,1.182-0.394,1.75-0.638c0.522-0.225,1.046-0.485,1.495-0.828
		c0.428-0.327,0.93-0.467,1.377-0.732c0.874-0.519,1.876-0.86,2.474-1.759c0.594-0.892,1.43-1.555,2.163-2.314
		c0.956-0.989,1.91-1.982,2.92-2.919c0.304-0.282,0.532-0.644,0.949-0.789c0.096-0.033,0.078-0.157,0.132-0.218
		c0.458-0.525,0.879-1.085,1.481-1.471c0.243-0.156,0.466-0.354,0.665-0.565c0.921-0.972,1.931-1.854,2.867-2.808
		c0.669-0.681,1.432-1.252,2.091-1.937c0.92-0.956,1.942-1.808,2.873-2.746c0.603-0.607,1.254-1.169,1.83-1.811
		c0.295-0.329,0.635-0.65,0.98-0.95c0.563-0.488,1.068-1.041,1.483-1.669c0.072-0.11,0.076-0.215,0.061-0.336
		c-0.049-0.397,0.528-0.983,0.878-0.815c0.514,0.245,0.827-0.085,1.141-0.308c0.215-0.152,0.402-0.212,0.638-0.214
		c0.296-0.002,0.592-0.003,0.887-0.009c0.659-0.013,1.026,0.27,1.1,0.944c0.091,0.828-0.097,1.597-0.549,2.317
		c-0.235,0.374-0.501,0.689-0.823,0.991c-0.271,0.254-0.416,0.63-0.695,0.91c-0.179,0.18-0.356,0.372-0.533,0.561
		c-0.343,0.365-0.547,0.824-0.714,1.288c-0.068,0.19-0.148,0.34-0.298,0.469c-0.204,0.175-0.383,0.366-0.341,0.674
		c0.011,0.082-0.006,0.191-0.108,0.222c-0.311,0.094-0.379,0.389-0.512,0.622c-0.296,0.521-0.526,1.071-0.985,1.501
		c-0.181,0.17-0.185,0.535-0.257,0.814c-0.038,0.145-0.077,0.283-0.177,0.4c-0.517,0.605-0.816,1.329-1.111,2.055
		c-0.111,0.273-0.347,0.463-0.5,0.715c-0.195,0.322-0.28,0.701-0.497,0.992c-0.406,0.544-0.582,1.235-1.12,1.698
		c-0.125,0.108-0.182,0.336-0.202,0.516c-0.029,0.255-0.056,0.469-0.366,0.514c-0.039,0.006-0.083,0.083-0.096,0.134
		c-0.13,0.518-0.424,0.928-0.766,1.332c-0.204,0.241-0.304,0.591-0.383,0.909c-0.05,0.201-0.124,0.336-0.272,0.474
		c-0.203,0.188-0.348,0.421-0.416,0.706c-0.114,0.479-0.373,0.927-0.631,1.31c-0.387,0.573-0.666,1.206-1.076,1.761
		c-0.119,0.161-0.214,0.346-0.289,0.533c-0.315,0.787-0.846,1.459-1.203,2.215c-0.26,0.55-0.646,1.027-0.842,1.614
		c-0.129,0.386-0.296,0.776-0.621,1.06c-0.054,0.047-0.114,0.109-0.132,0.174c-0.191,0.718-0.702,1.273-0.985,1.951
		c-0.232,0.554-0.548,1.093-0.953,1.561c-0.208,0.24-0.161,0.584-0.314,0.851c-0.035,0.061-0.016,0.158-0.058,0.208
		c-0.713,0.856-1.024,1.939-1.607,2.858c-0.378,0.596-0.778,1.188-1.096,1.812c-0.29,0.568-0.663,1.086-0.92,1.67
		c-0.098,0.222-0.451,0.301-0.377,0.622c0.66-0.296,1.18-0.792,1.77-1.181c0.532-0.352,1.024-0.788,1.566-1.136
		c0.93-0.596,1.825-1.245,2.792-1.785c0.672-0.375,1.312-0.806,1.976-1.197c0.432-0.255,0.905-0.446,1.313-0.732
		c0.515-0.362,1.021-0.737,1.561-1.062c0.137-0.082,0.246-0.234,0.391-0.276c0.569-0.163,0.884-0.625,1.104-1.081
		c0.435-0.902,1.013-1.705,1.579-2.514c0.487-0.697,1.106-1.295,1.651-1.951c0.299-0.36,0.755-0.587,1.079-0.931
		c0.5-0.531,1.185-0.824,1.669-1.367c0.107-0.12,0.271-0.117,0.408-0.153c0.392-0.102,0.65-0.434,1.014-0.568
		c0.912-0.336,1.832-0.647,2.825-0.632c0.233,0.003,0.454-0.025,0.688-0.101c0.516-0.167,1.03,0.036,1.391,0.357
		c0.32,0.285,0.415,0.749,0.207,1.22c-0.115,0.26-0.108,0.565-0.27,0.825c-0.109,0.175-0.175,0.362-0.394,0.444
		c-0.106,0.04-0.184,0.14-0.218,0.265c-0.023,0.084-0.053,0.215-0.108,0.232c-0.394,0.119-0.554,0.48-0.825,0.726
		c-0.73,0.663-1.445,1.343-2.292,1.885c-0.372,0.238-0.788,0.499-1.095,0.883c-0.253,0.316-0.673,0.485-1.007,0.734
		c-0.389,0.29-0.694,0.715-1.169,0.881c-0.632,0.22-1.004,0.834-1.646,1.044c-0.255,0.083-0.299,0.414-0.503,0.59
		c-0.85,0.733-1.26,1.726-1.667,2.742c-0.235,0.587-0.314,1.204-0.532,1.791c-0.169,0.456-0.082,0.972-0.03,1.452
		c0.029,0.27,0.304,0.298,0.571,0.22c0.365-0.106,0.682-0.314,1.044-0.433c0.74-0.243,1.418-0.631,2.065-1.064
		c0.798-0.535,1.63-1.016,2.439-1.531c0.612-0.389,1.11-0.951,1.693-1.392c0.537-0.407,1.007-0.888,1.55-1.292
		c0.604-0.45,1.098-1.048,1.638-1.582c0.56-0.553,1.122-1.104,1.677-1.662c0.671-0.674,1.32-1.371,2.01-2.025
		c0.518-0.492,1.031-0.985,1.519-1.508c0.106-0.114,0.185-0.229,0.233-0.361c0.134-0.364,0.369-0.606,0.73-0.757
		c0.237-0.099,0.51-0.093,0.72-0.302c0.091-0.091,0.316-0.045,0.46,0.054c0.563,0.387,1.124,0.347,1.683-0.004
		c0.099-0.062,0.207-0.099,0.281-0.011c0.212,0.252,0.539,0.202,0.802,0.318c0.495,0.218,0.768,0.488,0.657,1.023
		c-0.076,0.364-0.12,0.742-0.265,1.099c-0.231,0.564-0.663,0.972-1.022,1.438c-0.141,0.182-0.225,0.408-0.366,0.591
		c-0.441,0.569-0.769,1.214-1.217,1.781c-0.155,0.196-0.195,0.479-0.319,0.705c-0.418,0.767-0.848,1.527-1.279,2.287
		c-0.044,0.078-0.132,0.146-0.025,0.216c0.081,0.052,0.14-0.026,0.217-0.073c0.903-0.553,1.417-1.509,2.25-2.147
		c0.481-0.369,0.818-0.937,1.191-1.436c0.593-0.792,1.162-1.602,1.742-2.405c0.017-0.023,0.053-0.037,0.062-0.062
		c0.251-0.682,0.742-1.224,1.122-1.824c0.268-0.424,0.414-0.886,0.656-1.31c0.174-0.305,0.069-0.487-0.263-0.599
		c-0.764-0.257-1.519-0.54-2.29-0.775c-0.577-0.176-0.898-0.589-1.169-1.079c-0.148-0.269-0.258-0.524-0.568-0.718
		c-0.456-0.285-0.817-0.727-1.198-1.123c-0.147-0.153-0.162-0.32,0.089-0.452c0.954-0.501,1.913-0.846,3.017-0.474
		c0.275,0.093,0.638,0.157,0.93-0.083c0.041-0.034,0.111-0.047,0.168-0.046c0.573,0.005,1.182-0.043,1.689,0.21
		c0.357,0.178,0.73,0.328,1.083,0.516c0.185,0.099,0.376,0.085,0.561,0.047c0.826-0.169,1.607-0.499,2.42-0.712
		c0.663-0.174,1.354-0.247,2.012-0.438c0.594-0.172,1.188-0.341,1.786-0.502c0.071-0.019,0.137-0.065,0.208-0.071
		c1.034-0.079,2-0.494,3.021-0.62c0.496-0.061,1.001-0.139,1.472-0.249c0.495-0.116,1.001-0.161,1.485-0.294
		c0.261-0.072,0.516-0.095,0.775-0.128c0.763-0.098,1.488-0.398,2.264-0.421c0.029-0.001,0.075,0.005,0.086-0.011
		c0.345-0.507,0.945-0.263,1.401-0.469c0.446-0.201,0.934-0.046,1.363,0.163c0.348,0.169,0.693,0.311,1.083,0.322
		c0.029,0.001,0.059,0.013,0.088,0.01c0.178-0.019,0.221,0.355,0.379,0.198c0.242-0.241,0.59-0.393,0.713-0.739
		c0.045-0.127,0.08-0.243,0.19-0.333c0.483-0.393,0.798-0.935,1.173-1.415c0.312-0.399,0.64-0.768,0.995-1.125
		c0.16-0.161,0.243-0.396,0.389-0.574c0.711-0.869,1.424-1.736,2.152-2.591c0.654-0.768,1.353-1.5,1.986-2.285
		c0.398-0.494,0.816-0.957,1.297-1.365c0.326-0.276,0.473-0.688,0.801-0.975c0.708-0.62,1.274-1.388,2.021-1.977
		c0.293-0.231,0.537-0.543,0.771-0.827c0.523-0.631,1.119-1.2,1.732-1.704c0.69-0.567,1.23-1.287,1.976-1.79
		c0.267-0.18,0.457-0.47,0.754-0.647c0.276-0.164,0.233-0.499,0.213-0.772c-0.026-0.356,0.158-0.489,0.46-0.51
		c0.945-0.065,1.893-0.06,2.837-0.001c0.492,0.031,0.732,0.285,0.806,0.813c0.082,0.587-0.009,1.107-0.475,1.568
		c-0.306,0.303-0.69,0.56-0.832,1.038c-0.068,0.23-0.381,0.379-0.562,0.584c-0.409,0.465-0.766,0.964-0.942,1.571
		c-0.08,0.276-0.249,0.484-0.478,0.657c-0.492,0.372-0.755,0.933-1.116,1.412c-0.677,0.898-1.244,1.887-1.985,2.725
		c-0.466,0.527-0.8,1.12-1.185,1.686c-0.163,0.239-0.431,0.269-0.602,0.482c-0.44,0.549-0.87,1.097-1.27,1.681
		c-0.572,0.834-1.098,1.699-1.681,2.525c-0.388,0.549-0.657,1.196-1.065,1.737c-0.366,0.485-0.535,1.081-0.974,1.532
		c-0.201,0.207-0.16,0.619-0.328,0.932c-0.183,0.343-0.415,0.652-0.589,0.981c-0.288,0.544-0.682,1.019-0.924,1.598
		c-0.22,0.527-0.628,0.974-0.941,1.464c-0.181,0.285-0.337,0.586-0.457,0.917c0.784-0.533,1.53-1.085,2.225-1.711
		c0.307-0.276,0.685-0.486,1.058-0.673c0.36-0.18,0.685-0.398,1.012-0.628c0.383-0.27,0.795-0.52,1.209-0.724
		c0.633-0.312,1.227-0.708,1.89-0.954c0.786-0.291,1.568-0.616,2.313-0.971c0.63-0.3,1.298-0.487,1.933-0.743
		c0.645-0.26,1.343-0.485,2.047-0.601c0.487-0.08,0.926-0.307,1.421-0.377c0.274-0.039,0.572-0.092,0.855-0.173
		c0.822-0.236,1.651-0.453,2.508-0.55c0.725-0.082,1.456-0.178,2.157-0.37c0.278-0.076,0.678-0.104,0.828-0.479
		c0.047-0.117,0.172-0.114,0.27-0.106c0.432,0.034,0.867-0.088,1.3,0.141c0.209,0.11,0.533,0.075,0.784,0.016
		c0.761-0.178,1.48,0.066,2.171,0.266c0.481,0.139,0.969,0.255,1.451,0.387c0.573,0.156,0.838,0.634,0.624,1.188
		c-0.036,0.094-0.117,0.171-0.073,0.322c0.205-0.065,0.418-0.167,0.483-0.357c0.137-0.404,0.484-0.615,0.745-0.899
		c0.706-0.767,1.446-1.502,2.16-2.261c0.288-0.306,0.524-0.662,0.817-0.961c0.217-0.221,0.206-0.524,0.351-0.779
		c0.444-0.782,1.129-1.264,1.869-1.641c0.435-0.221,0.886-0.524,1.429-0.506c0.226,0.007,0.349-0.22,0.578-0.279
		c0.627-0.164,1.27-0.2,1.9-0.327c0.36-0.072,0.578-0.307,0.777-0.573c0.509-0.681,1.026-1.357,1.508-2.057
		c0.502-0.729,1.11-1.375,1.575-2.135c0.328-0.537,0.794-0.989,1.124-1.525c0.564-0.915,1.273-1.721,1.866-2.616
		c0.613-0.924,1.247-1.851,1.962-2.702c0.801-0.953,1.436-2.032,2.277-2.946c1.141-1.239,2.137-2.595,3.22-3.879
		c0.379-0.449,0.833-0.837,1.121-1.37c0.274-0.506,0.624-0.97,0.904-1.473c0.155-0.279,0.045-0.611,0.052-0.918
		c0.014-0.647,0.29-0.86,0.902-0.663c0.518,0.167,1.044,0.271,1.586,0.334c0.609,0.071,0.982,0.527,1.334,0.97
		c0.321,0.403,0.434,0.897,0.238,1.364c-0.138,0.328-0.348,0.634-0.452,0.983c-0.103,0.346-0.28,0.637-0.554,0.871
		c-0.033,0.028-0.076,0.062-0.084,0.1c-0.174,0.791-0.881,1.229-1.25,1.891c-0.247,0.444-0.505,0.884-0.783,1.309
		c-0.211,0.323-0.456,0.625-0.693,0.931c-0.645,0.828-1.329,1.626-1.989,2.441c-0.412,0.509-0.819,1.039-1.221,1.562
		c-0.284,0.369-0.57,0.747-0.891,1.098c-0.662,0.724-1.241,1.531-1.788,2.349c-0.219,0.327-0.519,0.571-0.73,0.913
		c-0.253,0.409-0.586,0.793-0.898,1.173c-0.12,0.146-0.213,0.298-0.308,0.454c-0.345,0.57-0.735,1.102-1.25,1.532
		c-0.011,0.009-0.029,0.017-0.032,0.029c-0.117,0.459-0.434,0.799-0.692,1.175c-0.213,0.31-0.049,0.338,0.241,0.347
		c1.17,0.036,2.321-0.205,3.488-0.207c1.376-0.002,2.752-0.031,4.126,0.005c0.753,0.02,1.51,0.078,2.227,0.398
		c0.236,0.105,0.528,0.104,0.788-0.186c0.405-0.453,0.944-0.755,1.473-1.074c0.574-0.346,1.209-0.558,1.774-0.925
		c0.376-0.244,0.882-0.286,1.328-0.426c0.451-0.141,0.937-0.143,1.365-0.398c0.232-0.138,0.542-0.101,0.816-0.16
		c0.471-0.101,0.933-0.27,1.429-0.26c0.429,0.008,0.775-0.306,1.213-0.326c0.193-0.009,0.398-0.087,0.605-0.098
		c0.777-0.043,1.538-0.265,2.304-0.303c0.826-0.041,1.604-0.298,2.421-0.379c0.722-0.071,1.462-0.16,2.183-0.222
		c0.862-0.075,1.685-0.339,2.553-0.368c0.832-0.028,1.66-0.181,2.49-0.279c0.044-0.005,0.088-0.018,0.132-0.016
		c1.065,0.038,2.126-0.114,3.168-0.254c1.301-0.176,2.602-0.165,3.898-0.276c0.615-0.053,1.23-0.105,1.847-0.133
		c1.517-0.069,3.036-0.253,4.551-0.124c0.856,0.073,1.758-0.032,2.561,0.323c0.528,0.233,1.182,0.393,1.363,1.091
		c0.03,0.116,0.127,0.189,0.208,0.214c0.554,0.173,0.872,0.653,1.296,0.989c0.199,0.157,0.427,0.247,0.62,0.392
		c0.138,0.104,0.381,0.207,0.287,0.441c-0.075,0.188-0.245,0.361-0.467,0.354c-0.707-0.022-1.417,0.023-2.122-0.094
		c-0.641-0.107-1.284-0.14-1.923,0.032c-0.112,0.03-0.233,0.031-0.351,0.033c-0.932,0.012-1.863,0.028-2.795,0.03
		c-2.127,0.005-4.245,0.267-6.374,0.187c-0.147-0.006-0.296-0.004-0.41,0.121c-0.086,0.094-0.241,0.162-0.319,0.101
		c-0.421-0.33-0.803,0.048-1.203,0.039c-0.443-0.009-0.893-0.037-1.33,0.017c-1.298,0.16-2.61,0.207-3.896,0.395
		c-0.817,0.119-1.631,0.127-2.44,0.23c-1.017,0.13-2.041,0.208-3.049,0.369c-0.562,0.09-1.143,0.092-1.711,0.324
		c-0.487,0.199-1.093,0.165-1.647,0.235c-0.594,0.075-1.188,0.101-1.722,0.415c-0.07,0.041-0.173,0.029-0.261,0.035
		c-1.038,0.077-2.066,0.261-3.041,0.598c-0.528,0.183-1.064,0.416-1.557,0.741c-0.33,0.218-0.665,0.322-0.667,0.79
		c-0.001,0.3,0.218,0.513,0.271,0.762c0.042,0.197-0.323,0.345-0.288,0.668c0.052,0.483-0.022,0.979,0.031,1.462
		c0.06,0.55-0.199,0.992-0.457,1.396c-0.618,0.969-1.256,1.938-1.992,2.818c-0.897,1.073-1.491,2.323-2.249,3.474
		c-0.467,0.71-1.029,1.357-1.526,2.048c-0.373,0.517-0.679,1.084-1.074,1.583c-0.397,0.501-0.736,1.041-1.058,1.581
		c-0.268,0.45-0.611,0.799-0.956,1.169c-0.13,0.14-0.251,0.276-0.413,0.378c-0.411,0.26-0.491,0.219-0.645-0.222
		c-0.11-0.316-0.274-0.605-0.245-0.961c0.014-0.171-0.083-0.256-0.293-0.175c-0.502,0.194-0.659,0.02-0.879-0.441
		c-0.221-0.461-0.235-0.918-0.28-1.391c-0.012-0.125-0.069-0.279-0.16-0.358c-0.357-0.311-0.419-0.73-0.532-1.154
		c-0.073-0.274-0.014-0.424,0.176-0.56c0.858-0.615,1.429-1.457,1.998-2.331c0.334-0.513,0.646-1.054,1.052-1.532
		c0.362-0.426,0.698-0.884,1.011-1.358c0.246-0.374,0.579-0.716,0.877-1.069c0.356-0.421,0.617-0.905,0.96-1.334
		c0.262-0.328,0.215-0.767,0.111-1.113c-0.181-0.6-0.155-1.198-0.138-1.797c0.012-0.406-0.136-0.5-0.517-0.48
		c-0.723,0.038-1.458-0.045-2.172,0.047c-2.09,0.272-4.197-0.006-6.276,0.211c-0.81,0.084-1.624,0.138-2.435,0.219
		c-0.251,0.025-0.484,0.121-0.587,0.397c-0.035,0.093-0.097,0.184-0.169,0.252c-0.607,0.573-1.051,1.255-1.433,1.994
		c-0.175,0.339-0.509,0.576-0.709,0.923c-0.347,0.599-0.711,1.202-1.16,1.724c-0.422,0.49-0.627,1.126-1.129,1.552
		c-0.085,0.072-0.139,0.187-0.188,0.292c-0.367,0.788-0.96,1.442-1.351,2.204c-0.341,0.665-0.806,1.246-1.116,1.934
		c-0.453,1.002-1.056,1.935-1.573,2.91c-0.445,0.838-0.866,1.688-1.271,2.547c-0.177,0.375-0.438,0.72-0.712,1.035
		c-0.292,0.336-0.37,0.753-0.534,1.137c-0.128,0.3-0.369,0.496-0.665,0.481c-0.252-0.013-0.4-0.23-0.426-0.53
		c-0.02-0.223-0.145-0.439-0.237-0.653c-0.026-0.06-0.101-0.098-0.17-0.161c-0.154,0.223-0.238,0.594-0.529,0.52
		c-0.338-0.086-0.158-0.453-0.185-0.698c-0.032-0.287-0.074-0.529-0.271-0.789c-0.427-0.562-0.442-1.223-0.108-1.847
		c0.473-0.886,0.734-1.86,1.214-2.749c0.614-1.134,1.226-2.271,1.776-3.441c0.262-0.557,0.657-1.056,0.907-1.623
		c0.305-0.692,0.776-1.285,1.133-1.946c0.202-0.373,0.387-0.773,0.627-1.132c0.329-0.49,0.686-0.962,1.012-1.454
		c0.345-0.52,0.685-1.045,0.99-1.588c0.113-0.202,0.277-0.329,0.426-0.483c0.103-0.107,0.234-0.233,0.105-0.38
		c-0.118-0.135-0.267-0.083-0.383,0.042c-0.15,0.162-0.349,0.154-0.539,0.14c-0.486-0.035-0.78,0.187-1.012,0.608
		c-0.246,0.448-0.737,0.688-1.054,1.088c-0.064,0.081-0.159,0.012-0.207-0.079c-0.055-0.103-0.114-0.204-0.172-0.305
		c-0.146-0.255-0.314-0.255-0.446-0.003c-0.51,0.978-1.334,1.728-1.909,2.668c-0.432,0.707-1.064,1.296-1.611,1.932
		c-0.306,0.357-0.608,0.731-0.917,1.089c-0.596,0.689-1.227,1.349-1.856,2.009c-0.538,0.563-1.064,1.144-1.652,1.651
		c-0.438,0.378-0.751,0.89-1.312,1.149c-0.27,0.125-0.444,0.443-0.666,0.669c-0.737,0.749-1.495,1.473-2.251,2.201
		c-0.416,0.401-0.848,0.78-1.305,1.12c-0.442,0.329-1.023,0.115-1.229-0.384c-0.166-0.402-0.314-0.811-0.453-1.223
		c-0.067-0.198-0.06-0.409,0.016-0.61c0.026-0.068,0.088-0.132,0.09-0.199c0.006-0.195,0.153-0.44-0.054-0.574
		c-0.186-0.121-0.327,0.12-0.433,0.216c-0.369,0.335-0.665,0.754-1.046,1.072c-0.388,0.324-0.649,0.754-1.057,1.071
		c-0.688,0.536-1.4,1.062-1.963,1.744c-0.167,0.203-0.423,0.248-0.61,0.406c-0.472,0.398-0.898,0.871-1.421,1.182
		c-0.582,0.346-1.05,0.844-1.672,1.138c-0.298,0.14-0.54,0.404-0.868,0.532c-0.412,0.16-0.628,0.102-0.849-0.295
		c-0.134-0.241-0.294-0.448-0.608-0.43c-0.282,0.016-0.384-0.172-0.451-0.394c-0.025-0.084-0.045-0.179-0.031-0.263
		c0.134-0.829-0.261-1.523-0.556-2.244c-0.129-0.314-0.047-0.588,0.22-0.781c0.441-0.319,0.759-0.753,1.132-1.136
		c0.582-0.599,1.179-1.184,1.771-1.774c0.694-0.693,1.381-1.394,2.088-2.074c0.493-0.475,1.017-0.916,1.521-1.38
		c0.593-0.545,1.161-1.117,1.774-1.638c0.459-0.39,0.94-0.752,1.339-1.25c-0.221-0.115-0.448-0.06-0.644-0.002
		c-0.623,0.186-1.265,0.302-1.857,0.602c-0.519,0.263-1.154,0.227-1.657,0.524c-0.532,0.315-1.112,0.453-1.684,0.644
		c-0.284,0.095-0.503,0.356-0.811,0.475c-1.108,0.429-2.095,1.097-3.138,1.657c-0.526,0.283-0.986,0.653-1.449,1.018
		c-0.453,0.358-0.966,0.631-1.39,1.028c-0.563,0.528-1.197,0.977-1.681,1.592c-0.3,0.382-0.764,0.612-1.032,1.025
		c-0.366,0.564-0.96,0.939-1.293,1.506c-0.337,0.574-0.972,0.929-1.141,1.608c-0.057,0.229-0.279,0.292-0.397,0.458
		c-0.276,0.387-0.488,0.827-0.79,1.18c-0.676,0.788-0.992,1.821-1.814,2.519c-0.264,0.224-0.329,0.725-0.615,0.989
		c-0.319,0.295-0.413,0.745-0.788,0.996c-0.222,0.149-0.394,0.19-0.642,0.072c-0.247-0.118-0.504-0.225-0.787-0.267
		c-0.327-0.049-0.465-0.329-0.484-0.606c-0.042-0.613-0.446-0.995-0.829-1.38c-0.298-0.299-0.338-0.441-0.037-0.72
		c0.099-0.092,0.199-0.194,0.203-0.331c0.013-0.521,0.154-0.98,0.421-1.446c0.192-0.334,0.266-0.765,0.376-1.155
		c0.145-0.518,0.362-0.997,0.598-1.475c0.339-0.686,0.618-1.407,1.013-2.058c0.487-0.804,0.976-1.601,1.397-2.445
		c0.201-0.402,0.557-0.727,0.679-1.182c0.105-0.005,0.188-0.018,0.247-0.138c0.313-0.643,0.718-1.231,1.108-1.829
		c0.051-0.078,0.1-0.184-0.006-0.257c-0.3,0.29-0.555,0.611-0.738,0.975C108.219,36.939,107.913,37.308,107.823,37.779z
		 M40.184,39.425c-0.657,0.154-1.123,0.612-1.642,0.986c-0.316,0.227-0.538,0.607-0.999,0.616c-0.105,0.002-0.222,0.088-0.309,0.164
		c-0.713,0.624-1.54,1.13-2.136,1.873c-0.414,0.515-1.131,0.571-1.494,1.19c-0.348,0.595-1.062,0.884-1.521,1.43
		c-0.23,0.274-0.48,0.565-0.767,0.805c-0.269,0.226-0.579,0.378-0.795,0.705c-0.17,0.257-0.384,0.529-0.65,0.745
		c-0.641,0.521-1.125,1.207-1.636,1.838c-0.619,0.764-1.225,1.552-1.87,2.291c-0.853,0.98-1.821,1.865-2.549,2.95
		c-0.413,0.615-0.993,1.087-1.383,1.72c-0.147,0.239-0.306,0.482-0.478,0.71c-0.392,0.521-0.929,0.959-1.096,1.64
		c-0.043,0.177-0.169,0.336-0.267,0.496c-0.282,0.462-0.57,0.919-0.854,1.38c-0.052,0.085-0.136,0.193-0.006,0.266
		c0.105,0.059,0.195,0.023,0.301-0.081c0.39-0.379,0.826-0.721,1.257-1.037c0.468-0.343,0.881-0.73,1.288-1.128
		c0.271-0.265,0.518-0.589,0.77-0.841c0.249-0.249,0.544-0.546,0.865-0.734c0.514-0.301,0.814-0.789,1.177-1.212
		c0.17-0.198,0.395-0.308,0.564-0.515c0.526-0.644,1.146-1.212,1.714-1.823c0.312-0.336,0.631-0.664,0.949-0.986
		c0.248-0.251,0.505-0.543,0.734-0.835c0.196-0.25,0.464-0.438,0.649-0.677c0.353-0.454,0.748-0.875,1.079-1.344
		c0.107-0.152,0.199-0.306,0.332-0.445c0.749-0.782,1.541-1.524,2.213-2.377c0.134-0.171,0.213-0.417,0.383-0.522
		c0.758-0.47,1.155-1.273,1.74-1.895c0.749-0.796,1.425-1.682,2.143-2.519c0.347-0.404,0.626-0.878,0.996-1.235
		C39.386,40.544,39.827,40.036,40.184,39.425z M52.979,34.245c2.547-3.877,4.691-7.983,6.996-11.998
		c-0.542,0.111-0.792,0.573-1.164,0.865c-0.678,0.531-1.271,1.18-1.855,1.827c-0.264,0.292-0.528,0.622-0.857,0.847
		c-0.564,0.385-1.051,0.859-1.56,1.301c-0.979,0.85-1.743,1.939-2.889,2.607c-0.049,0.029-0.096,0.075-0.124,0.125
		c-0.262,0.474-0.687,0.807-1.071,1.161c-0.374,0.344-0.71,0.697-0.923,1.156c-0.171,0.368-0.083,0.538,0.309,0.455
		c0.561-0.119,1.102,0.051,1.648,0.004c0.46-0.04,0.773,0.306,1.184,0.39c0.119,0.024,0.178,0.213,0.251,0.343
		C53.094,33.634,52.873,33.926,52.979,34.245z M113.196,29.681c0.568-0.574,0.94-1.276,1.375-1.931
		c0.207-0.312,0.332-0.676,0.612-0.947c0.311-0.301,0.523-0.695,0.744-1.05c0.428-0.684,0.911-1.329,1.34-2.011
		c0.085-0.136,0.195-0.264,0.062-0.38c-0.143-0.124-0.251-0.006-0.345,0.135c-0.325,0.491-0.693,0.949-1.002,1.457
		c-0.262,0.431-0.448,0.904-0.76,1.313c-0.432,0.567-0.975,1.062-1.219,1.762c-0.032,0.091-0.108,0.177-0.185,0.239
		C113.365,28.632,113.437,29.223,113.196,29.681z M66.948,41.035c0.686-0.17,1.052-0.78,1.633-1.088
		c0.459-0.243,0.808-0.689,1.213-1.038c0.061-0.052,0.12-0.089,0.09-0.172c-0.036-0.1-0.105-0.055-0.179-0.04
		c-0.678,0.141-1.189,0.592-1.753,0.944c-0.091,0.057-0.172,0.176-0.197,0.28c-0.055,0.233-0.227,0.345-0.377,0.503
		C67.22,40.591,66.912,40.697,66.948,41.035z"/>
</g>
<g>
	<path d="M76.326,74.687h-3.02c-0.026,0-0.039,0.013-0.039,0.038v2.876c0,0.025,0.013,0.039,0.039,0.039h2.1
		c0.064,0,0.096,0.032,0.096,0.096v0.067c0,0.064-0.032,0.096-0.096,0.096h-2.1c-0.026,0-0.039,0.013-0.039,0.038v3.097
		c0,0.064-0.032,0.096-0.096,0.096h-0.096c-0.064,0-0.096-0.032-0.096-0.096v-6.52c0-0.063,0.032-0.096,0.096-0.096h3.25
		c0.064,0,0.096,0.032,0.096,0.096v0.077C76.422,74.655,76.39,74.687,76.326,74.687z"/>
	<path d="M81.447,81.053l-0.374-1.352c-0.006-0.019-0.022-0.029-0.048-0.029h-2.579c-0.025,0-0.042,0.01-0.048,0.029l-0.374,1.352
		c-0.013,0.051-0.048,0.077-0.105,0.077h-0.086c-0.032,0-0.056-0.01-0.072-0.029s-0.021-0.044-0.014-0.077l1.802-6.529
		c0.013-0.051,0.048-0.077,0.105-0.077h0.144c0.058,0,0.092,0.025,0.105,0.077l1.822,6.529l0.009,0.029
		c0,0.051-0.032,0.077-0.096,0.077h-0.086C81.494,81.13,81.459,81.104,81.447,81.053z M78.489,79.399
		c0.01,0.009,0.021,0.014,0.034,0.014h2.426c0.013,0,0.024-0.005,0.034-0.014c0.009-0.01,0.011-0.018,0.005-0.024l-1.228-4.458
		c-0.006-0.013-0.014-0.019-0.024-0.019s-0.018,0.006-0.024,0.019l-1.227,4.458C78.477,79.382,78.479,79.39,78.489,79.399z"/>
	<path d="M86.585,77.659c0,0.006,0.006,0.013,0.019,0.019c0.32,0.128,0.566,0.335,0.738,0.623c0.173,0.288,0.259,0.633,0.259,1.036
		c0,0.556-0.155,0.994-0.465,1.313c-0.31,0.32-0.73,0.479-1.261,0.479H84.15c-0.064,0-0.096-0.032-0.096-0.096v-6.52
		c0-0.063,0.032-0.096,0.096-0.096h1.687c0.531,0,0.949,0.152,1.256,0.456c0.307,0.304,0.46,0.721,0.46,1.251
		c0,0.364-0.083,0.678-0.249,0.939c-0.167,0.262-0.4,0.454-0.7,0.576C86.592,77.646,86.585,77.653,86.585,77.659z M84.342,74.725
		v2.761c0,0.026,0.013,0.039,0.039,0.039h1.457c0.441,0,0.791-0.125,1.05-0.374c0.259-0.249,0.388-0.588,0.388-1.016
		c0-0.447-0.129-0.801-0.388-1.06c-0.259-0.259-0.609-0.388-1.05-0.388H84.38C84.354,74.687,84.342,74.7,84.342,74.725z
		 M86.926,80.439c0.259-0.274,0.388-0.646,0.388-1.112c0-0.473-0.131-0.848-0.393-1.126c-0.262-0.278-0.62-0.417-1.074-0.417H84.38
		c-0.026,0-0.039,0.013-0.039,0.039v2.991c0,0.025,0.013,0.039,0.039,0.039h1.486C86.314,80.852,86.667,80.714,86.926,80.439z"/>
	<path d="M90.133,81.034v-6.52c0-0.063,0.032-0.096,0.096-0.096h0.096c0.064,0,0.096,0.032,0.096,0.096v6.52
		c0,0.064-0.032,0.096-0.096,0.096h-0.096C90.165,81.13,90.133,81.098,90.133,81.034z"/>
	<path d="M93.949,80.977c-0.275-0.153-0.489-0.368-0.643-0.643c-0.153-0.274-0.23-0.591-0.23-0.949v-3.212
		c0-0.358,0.077-0.676,0.23-0.954c0.153-0.278,0.368-0.494,0.643-0.647s0.588-0.23,0.939-0.23c0.358,0,0.676,0.077,0.954,0.23
		c0.278,0.153,0.494,0.369,0.647,0.647c0.153,0.278,0.23,0.596,0.23,0.954v3.212c0,0.358-0.077,0.675-0.23,0.949
		c-0.153,0.275-0.369,0.489-0.647,0.643c-0.278,0.153-0.596,0.23-0.954,0.23C94.536,81.207,94.223,81.13,93.949,80.977z
		 M96.005,80.511c0.284-0.284,0.426-0.657,0.426-1.117v-3.231c0-0.467-0.142-0.842-0.426-1.127
		c-0.285-0.284-0.657-0.426-1.117-0.426c-0.454,0-0.821,0.142-1.103,0.426c-0.281,0.285-0.422,0.66-0.422,1.127v3.231
		c0,0.46,0.141,0.833,0.422,1.117c0.281,0.285,0.648,0.427,1.103,0.427C95.348,80.938,95.721,80.796,96.005,80.511z"/>
	<path d="M99.385,81.034v-6.52c0-0.063,0.032-0.096,0.096-0.096h0.096c0.064,0,0.096,0.032,0.096,0.096v6.309
		c0,0.025,0.013,0.038,0.039,0.038h2.896c0.064,0,0.096,0.032,0.096,0.096v0.077c0,0.064-0.032,0.096-0.096,0.096h-3.125
		C99.417,81.13,99.385,81.098,99.385,81.034z"/>
	<path d="M108.56,81.053l-0.374-1.352c-0.006-0.019-0.022-0.029-0.048-0.029h-2.579c-0.025,0-0.042,0.01-0.048,0.029l-0.374,1.352
		c-0.013,0.051-0.048,0.077-0.105,0.077h-0.086c-0.032,0-0.056-0.01-0.072-0.029s-0.021-0.044-0.014-0.077l1.802-6.529
		c0.013-0.051,0.048-0.077,0.105-0.077h0.144c0.058,0,0.092,0.025,0.105,0.077l1.822,6.529l0.009,0.029
		c0,0.051-0.032,0.077-0.096,0.077h-0.086C108.608,81.13,108.573,81.104,108.56,81.053z M105.602,79.399
		c0.01,0.009,0.021,0.014,0.034,0.014h2.426c0.013,0,0.024-0.005,0.034-0.014c0.009-0.01,0.011-0.018,0.005-0.024l-1.228-4.458
		c-0.006-0.013-0.014-0.019-0.024-0.019s-0.018,0.006-0.024,0.019l-1.227,4.458C105.591,79.382,105.593,79.39,105.602,79.399z"/>
	<path d="M114.044,81.034v-6.52c0-0.063,0.032-0.096,0.096-0.096h1.745c0.512,0,0.914,0.155,1.209,0.465
		c0.293,0.31,0.439,0.737,0.439,1.28v3.221c0,0.543-0.146,0.97-0.439,1.28c-0.295,0.31-0.697,0.465-1.209,0.465h-1.745
		C114.076,81.13,114.044,81.098,114.044,81.034z M114.37,80.861h1.524c0.416,0,0.744-0.131,0.988-0.393
		c0.242-0.262,0.363-0.623,0.363-1.083v-3.212c0-0.466-0.121-0.831-0.363-1.093c-0.244-0.262-0.572-0.393-0.988-0.393h-1.524
		c-0.026,0-0.039,0.013-0.039,0.038v6.098C114.332,80.849,114.345,80.861,114.37,80.861z"/>
	<path d="M123.489,74.687h-3.04c-0.025,0-0.038,0.013-0.038,0.038v2.876c0,0.025,0.013,0.039,0.038,0.039h2.109
		c0.064,0,0.097,0.032,0.097,0.096v0.067c0,0.064-0.032,0.096-0.097,0.096h-2.109c-0.025,0-0.038,0.013-0.038,0.038v2.886
		c0,0.025,0.013,0.038,0.038,0.038h3.04c0.063,0,0.096,0.032,0.096,0.096v0.077c0,0.064-0.032,0.096-0.096,0.096h-3.27
		c-0.064,0-0.096-0.032-0.096-0.096v-6.52c0-0.063,0.031-0.096,0.096-0.096h3.27c0.063,0,0.096,0.032,0.096,0.096v0.077
		C123.584,74.655,123.552,74.687,123.489,74.687z"/>
	<path d="M126.718,80.977c-0.274-0.153-0.488-0.368-0.642-0.643c-0.153-0.274-0.23-0.591-0.23-0.949v-3.212
		c0-0.358,0.077-0.676,0.23-0.954c0.153-0.278,0.367-0.494,0.642-0.647c0.275-0.153,0.589-0.23,0.94-0.23
		c0.357,0,0.676,0.077,0.953,0.23c0.278,0.153,0.494,0.369,0.647,0.647c0.153,0.278,0.23,0.596,0.23,0.954v3.212
		c0,0.358-0.077,0.675-0.23,0.949c-0.153,0.275-0.369,0.489-0.647,0.643c-0.277,0.153-0.596,0.23-0.953,0.23
		C127.307,81.207,126.993,81.13,126.718,80.977z M128.775,80.511c0.285-0.284,0.427-0.657,0.427-1.117v-3.231
		c0-0.467-0.142-0.842-0.427-1.127c-0.284-0.284-0.656-0.426-1.116-0.426c-0.454,0-0.822,0.142-1.103,0.426
		c-0.282,0.285-0.422,0.66-0.422,1.127v3.231c0,0.46,0.14,0.833,0.422,1.117c0.28,0.285,0.648,0.427,1.103,0.427
		C128.118,80.938,128.491,80.796,128.775,80.511z"/>
	<path d="M132.156,81.034v-6.52c0-0.063,0.031-0.096,0.096-0.096h1.745c0.511,0,0.914,0.155,1.208,0.465s0.44,0.737,0.44,1.28v3.221
		c0,0.543-0.146,0.97-0.44,1.28s-0.697,0.465-1.208,0.465h-1.745C132.187,81.13,132.156,81.098,132.156,81.034z M132.481,80.861
		h1.524c0.416,0,0.745-0.131,0.988-0.393c0.242-0.262,0.364-0.623,0.364-1.083v-3.212c0-0.466-0.122-0.831-0.364-1.093
		c-0.243-0.262-0.572-0.393-0.988-0.393h-1.524c-0.025,0-0.038,0.013-0.038,0.038v6.098
		C132.443,80.849,132.455,80.861,132.481,80.861z"/>
	<path d="M141.244,81.053l-0.374-1.352c-0.006-0.019-0.022-0.029-0.048-0.029h-2.579c-0.025,0-0.042,0.01-0.048,0.029l-0.374,1.352
		c-0.013,0.051-0.048,0.077-0.105,0.077h-0.086c-0.032,0-0.057-0.01-0.072-0.029s-0.021-0.044-0.015-0.077l1.803-6.529
		c0.013-0.051,0.048-0.077,0.105-0.077h0.144c0.058,0,0.093,0.025,0.105,0.077l1.822,6.529l0.01,0.029
		c0,0.051-0.032,0.077-0.097,0.077h-0.086C141.292,81.13,141.257,81.104,141.244,81.053z M138.286,79.399
		c0.01,0.009,0.021,0.014,0.034,0.014h2.426c0.013,0,0.023-0.005,0.033-0.014c0.01-0.01,0.011-0.018,0.005-0.024l-1.228-4.458
		c-0.006-0.013-0.015-0.019-0.023-0.019c-0.01,0-0.019,0.006-0.024,0.019l-1.228,4.458C138.276,79.382,138.277,79.39,138.286,79.399
		z"/>
	<path d="M146.489,74.514v0.077c0,0.064-0.031,0.096-0.096,0.096h-1.62c-0.025,0-0.038,0.013-0.038,0.038v6.309
		c0,0.064-0.032,0.096-0.097,0.096h-0.096c-0.063,0-0.096-0.032-0.096-0.096v-6.309c0-0.025-0.013-0.038-0.038-0.038h-1.524
		c-0.064,0-0.096-0.032-0.096-0.096v-0.077c0-0.063,0.031-0.096,0.096-0.096h3.509C146.457,74.418,146.489,74.451,146.489,74.514z"
		/>
	<path d="M149.03,80.977c-0.274-0.153-0.488-0.368-0.642-0.643c-0.153-0.274-0.23-0.591-0.23-0.949v-3.212
		c0-0.358,0.077-0.676,0.23-0.954c0.153-0.278,0.367-0.494,0.642-0.647c0.275-0.153,0.589-0.23,0.94-0.23
		c0.357,0,0.676,0.077,0.953,0.23c0.278,0.153,0.494,0.369,0.647,0.647c0.153,0.278,0.23,0.596,0.23,0.954v3.212
		c0,0.358-0.077,0.675-0.23,0.949c-0.153,0.275-0.369,0.489-0.647,0.643c-0.277,0.153-0.596,0.23-0.953,0.23
		C149.618,81.207,149.305,81.13,149.03,80.977z M151.086,80.511c0.285-0.284,0.427-0.657,0.427-1.117v-3.231
		c0-0.467-0.142-0.842-0.427-1.127c-0.284-0.284-0.656-0.426-1.116-0.426c-0.454,0-0.822,0.142-1.103,0.426
		c-0.282,0.285-0.422,0.66-0.422,1.127v3.231c0,0.46,0.14,0.833,0.422,1.117c0.28,0.285,0.648,0.427,1.103,0.427
		C150.43,80.938,150.802,80.796,151.086,80.511z"/>
</g>
<g>
</g>
<g>
</g>
<g>
</g>
<g>
</g>
<g>
</g>
<g>
</g>
</svg>
